#!OML:ASF H:\LiuWeirdWalks\Patient Classification 1\Patient 1\Session 1\male.ASF
:FULLY-SPECIFIED
:DEGREES
759
root 3.65734 17.7189 43.0988 -0.46894 4.38458 2.28041
lowerback 4.95902 -0.927049 -10.7095
upperback -2.21481 -1.83639 3.51687
thorax -4.70499 -0.513202 9.99924
lowerneck -24.1304 2.76356 4.34652
upperneck 12.6345 2.75358 -2.46203
head 7.90632 1.26688 -1.15433
rclavicle -9.59136e-015 1.43125e-014
rhumerus -28.3118 -8.57011 -81.6505
rradius 22.9724
rwrist 2.73186
rhand -8.42907 4.31177
rfingers 7.12502
rthumb 17.496 -24.9209
lclavicle -9.59136e-015 1.43125e-014
lhumerus -35.24 8.5391 87.7856
lradius 25.4472
lwrist 2.90673
lhand -13.0369 -2.24272
lfingers 7.12502
lthumb 13.0576 27.3286
rfemur -14.752 -9.93553 11.1976
rtibia 58.9298
rfoot -12.563 -20.2283
rtoes -6.99006
lfemur -14.5834 -0.323856 -22.7118
ltibia 24.8642
lfoot -4.20951 11.2533
ltoes -18.6108
760
root 3.67561 17.7166 43.1473 -0.492799 4.37886 2.0979
lowerback 5.0496 -0.864287 -10.2764
upperback -2.24514 -1.73273 3.4832
thorax -4.8236 -0.466897 9.70422
lowerneck -24.1156 2.49632 4.07961
upperneck 12.7341 2.44311 -2.24686
head 7.92036 1.12953 -1.08148
rclavicle 5.26779e-015 -7.95139e-016
rhumerus -28.382 -9.04118 -81.601
rradius 22.8711
rwrist 2.43307
rhand -8.95564 4.07389
rfingers 7.12502
rthumb 16.9891 -25.2031
lclavicle 5.26779e-015 -7.95139e-016
lhumerus -34.6967 7.61408 87.868
lradius 25.1402
lwrist 2.19105
lhand -12.7943 -2.30938
lfingers 7.12502
lthumb 13.2915 27.2468
rfemur -15.1613 -10.0471 11.526
rtibia 58.2813
rfoot -13.2016 -20.2314
rtoes -7.24036
lfemur -14.5755 -0.35631 -22.5655
ltibia 25.2359
lfoot -4.48429 11.3426
ltoes -18.2953
761
root 3.69288 17.7128 43.195 -0.586242 4.37381 1.94376
lowerback 5.18536 -0.825758 -9.95108
upperback -2.25249 -1.67091 3.47938
thorax -4.92948 -0.43979 9.50983
lowerneck -24.0279 2.27672 3.86336
upperneck 12.8204 2.1928 -2.08488
head 7.92278 1.01801 -1.02676
rclavicle -1.39149e-015 -1.98785e-014
rhumerus -28.4549 -9.31637 -81.5624
rradius 22.8045
rwrist 2.0769
rhand -9.42253 3.79546
rfingers 7.12502
rthumb 16.5397 -25.5196
lclavicle -1.39149e-015 -1.98785e-014
lhumerus -34.1714 6.89231 87.8776
lradius 24.8432
lwrist 1.38388
lhand -12.4943 -2.35121
lfingers 7.12502
lthumb 13.5807 27.1859
rfemur -15.4342 -10.1224 11.8142
rtibia 57.4869
rfoot -13.8416 -20.2457
rtoes -7.34327
lfemur -14.4956 -0.394239 -22.4469
ltibia 25.6143
lfoot -4.76398 11.4369
ltoes -17.9433
762
root 3.70945 17.7079 43.2428 -0.722516 4.36012 1.80434
lowerback 5.35156 -0.7779 -9.64835
upperback -2.26335 -1.6002 3.47498
thorax -5.05769 -0.406318 9.32851
lowerneck -23.877 2.05659 3.6425
upperneck 12.9107 1.94501 -1.92149
head 7.91733 0.907858 -0.970606
rclavicle 1.71949e-014 5.56597e-015
rhumerus -28.582 -9.5112 -81.5079
rradius 22.7758
rwrist 1.65426
rhand -9.84714 3.53742
rfingers 7.12502
rthumb 16.1308 -25.8113
lclavicle 1.71949e-014 5.56597e-015
lhumerus -33.6855 6.24953 87.8435
lradius 24.5678
lwrist 0.557306
lhand -12.1428 -2.3417
lfingers 7.12502
lthumb 13.9194 27.1724
rfemur -15.5997 -10.1577 12.0802
rtibia 56.5532
rfoot -14.4618 -20.2856
rtoes -7.4433
lfemur -14.3678 -0.442012 -22.3411
ltibia 25.9951
lfoot -5.05007 11.5452
ltoes -17.5686
763
root 3.72472 17.7019 43.2898 -0.855215 4.34119 1.67501
lowerback 5.46017 -0.796211 -9.48397
upperback -2.2301 -1.61891 3.52397
thorax -5.08124 -0.420352 9.29093
lowerneck -23.7473 1.95282 3.5652
upperneck 12.9752 1.82601 -1.86739
head 7.91343 0.854218 -0.956629
rclavicle -5.96354e-015 -1.66979e-014
rhumerus -28.5966 -9.45206 -81.5207
rradius 22.7524
rwrist 1.27649
rhand -10.1761 3.29457
rfingers 7.12502
rthumb 15.8141 -26.0795
lclavicle -5.96354e-015 -1.66979e-014
lhumerus -33.1558 5.9206 87.7033
lradius 24.321
lwrist -0.286814
lhand -11.7686 -2.30678
lfingers 7.12502
lthumb 14.28 27.1822
rfemur -15.7152 -10.1549 12.3396
rtibia 55.4928
rfoot -15.0546 -20.3475
rtoes -7.52612
lfemur -14.2416 -0.491848 -22.2432
ltibia 26.3676
lfoot -5.3182 11.6575
ltoes -17.1589
764
root 3.73907 17.695 43.3364 -0.989846 4.31551 1.55784
lowerback 5.5439 -0.900322 -9.52958
upperback -2.2023 -1.76226 3.66812
thorax -5.06165 -0.490024 9.49127
lowerneck -23.4582 1.99866 3.65104
upperneck 12.9582 1.89189 -1.9756
head 7.8647 0.880046 -0.999268
rclavicle -1.41137e-014 2.06736e-014
rhumerus -28.5884 -9.01207 -81.5736
rradius 22.7412
rwrist 0.90999
rhand -10.4184 3.10858
rfingers 7.12502
rthumb 15.5807 -26.2838
lclavicle -1.41137e-014 2.06736e-014
lhumerus -32.7037 5.99512 87.4681
lradius 24.1259
lwrist -1.12751
lhand -11.3692 -2.21022
lfingers 7.12502
lthumb 14.6648 27.2512
rfemur -15.7731 -10.1122 12.5839
rtibia 54.3118
rfoot -15.6145 -20.4232
rtoes -7.6932
lfemur -14.1058 -0.549997 -22.1567
ltibia 26.7279
lfoot -5.57148 11.7781
ltoes -16.7398
765
root 3.75112 17.6887 43.3836 -1.10072 4.30474 1.43384
lowerback 5.56816 -1.07203 -9.71867
upperback -2.18147 -1.99938 3.8803
thorax -4.98688 -0.603801 9.85717
lowerneck -23.0517 2.1372 3.83577
upperneck 12.8926 2.07368 -2.17787
head 7.78627 0.956932 -1.07458
rclavicle 2.38045e-014 -2.8625e-014
rhumerus -28.5658 -8.34288 -81.6372
rradius 22.7413
rwrist 0.697877
rhand -10.5186 2.98794
rfingers 7.12502
rthumb 15.4842 -26.412
lclavicle 2.38045e-014 -2.8625e-014
lhumerus -32.3011 6.34299 87.1622
lradius 23.9634
lwrist -1.91619
lhand -11.0006 -2.07417
lfingers 7.12502
lthumb 15.0199 27.361
rfemur -15.8021 -10.0184 12.8412
rtibia 53.0164
rfoot -16.1596 -20.5256
rtoes -7.85782
lfemur -13.9863 -0.596905 -22.0569
ltibia 27.0676
lfoot -5.81598 11.8782
ltoes -16.3157
766
root 3.76033 17.683 43.4318 -1.17343 4.32085 1.29708
lowerback 5.57939 -1.10667 -9.59203
upperback -2.18645 -2.03442 3.93713
thorax -4.99131 -0.624048 9.8491
lowerneck -22.8229 2.06255 3.80632
upperneck 12.924 1.9897 -2.16408
head 7.75649 0.918587 -1.07738
rclavicle 7.65321e-015 -7.95139e-016
rhumerus -28.6664 -8.23653 -81.5744
rradius 22.7981
rwrist 0.685625
rhand -10.4912 2.94287
rfingers 7.12502
rthumb 15.5106 -26.455
lclavicle 7.65321e-015 -7.95139e-016
lhumerus -31.8183 6.1421 86.9334
lradius 23.7777
lwrist -2.5368
lhand -10.6671 -1.91175
lfingers 7.12502
lthumb 15.3412 27.4992
rfemur -15.8075 -9.87971 13.1207
rtibia 51.6098
rfoot -16.6809 -20.6571
rtoes -8.05232
lfemur -13.9028 -0.638656 -21.9339
ltibia 27.3853
lfoot -6.06713 11.9458
ltoes -15.9431
767
root 3.76714 17.678 43.4808 -1.22575 4.3528 1.15522
lowerback 5.52385 -1.22358 -9.63787
upperback -2.18663 -2.18365 4.07598
thorax -4.91794 -0.699388 10.0394
lowerneck -22.4921 2.09962 3.89484
upperneck 12.9239 2.04508 -2.26661
head 7.70639 0.941054 -1.12023
rclavicle 1.55052e-014 7.87187e-014
rhumerus -28.7059 -7.80618 -81.5623
rradius 22.8349
rwrist 0.671838
rhand -10.4065 2.96226
rfingers 7.12502
rthumb 15.5921 -26.4293
lclavicle 1.55052e-014 7.87187e-014
lhumerus -31.3742 6.2442 86.6374
lradius 23.6277
lwrist -3.06631
lhand -10.3923 -1.72967
lfingers 7.12502
lthumb 15.6059 27.6608
rfemur -15.7775 -9.6702 13.405
rtibia 50.0996
rfoot -17.163 -20.801
rtoes -8.18693
lfemur -13.8337 -0.666515 -21.796
ltibia 27.6805
lfoot -6.32836 11.9892
ltoes -15.6196
768
root 3.77132 17.674 43.5305 -1.24459 4.40717 1.00208
lowerback 5.4527 -1.20319 -9.36059
upperback -2.20096 -2.1296 4.05499
thorax -4.91336 -0.681659 9.84541
lowerneck -22.3711 1.91968 3.76115
upperneck 13.0474 1.82581 -2.13513
head 7.71834 0.844749 -1.08385
rclavicle 5.81445e-015 -7.95139e-016
rhumerus -28.8313 -7.94558 -81.448
rradius 22.9034
rwrist 0.770118
rhand -10.2859 3.01814
rfingers 7.12502
rthumb 15.7083 -26.3643
lclavicle 5.81445e-015 -7.95139e-016
lhumerus -30.8302 5.79596 86.4199
lradius 23.4668
lwrist -3.3961
lhand -10.1751 -1.5116
lfingers 7.12502
lthumb 15.8151 27.8624
rfemur -15.726 -9.3855 13.7013
rtibia 48.4945
rfoot -17.6133 -20.9513
rtoes -8.20652
lfemur -13.8012 -0.670217 -21.6344
ltibia 27.9617
lfoot -6.62497 11.9826
ltoes -15.4172
769
root 3.77344 17.6705 43.5802 -1.24143 4.48034 0.852857
lowerback 5.32055 -1.25422 -9.23369
upperback -2.2107 -2.17511 4.10172
thorax -4.83908 -0.712117 9.81983
lowerneck -22.1576 1.8342 3.72355
upperneck 13.1171 1.72628 -2.10708
head 7.70304 0.799973 -1.08219
rclavicle 1.69961e-014 -2.54444e-014
rhumerus -28.8925 -7.81483 -81.3802
rradius 22.9469
rwrist 0.818821
rhand -10.1682 3.0796
rfingers 7.12502
rthumb 15.8216 -26.2939
lclavicle 1.69961e-014 -2.54444e-014
lhumerus -30.3193 5.60842 86.1495
lradius 23.3385
lwrist -3.64306
lhand -10.0323 -1.29454
lfingers 7.12502
lthumb 15.9525 28.0685
rfemur -15.6477 -9.0331 13.9883
rtibia 46.8104
rfoot -17.9567 -21.112
rtoes -8.14571
lfemur -13.7909 -0.636253 -21.4702
ltibia 28.2324
lfoot -6.93447 11.9259
ltoes -15.2931
